<svg width="420" height="320" viewBox="0 0 420 320" fill="none" xmlns="http://www.w3.org/2000/svg">
  <g opacity="0.13">
    <ellipse cx="70" cy="60" rx="60" ry="40" fill="#b3d0ff"/>
    <ellipse cx="350" cy="90" rx="50" ry="30" fill="#ffd6a0"/>
    <ellipse cx="210" cy="250" rx="80" ry="50" fill="#b3ffd6"/>
    <path d="M120 120 Q130 100 150 120 Q170 140 190 120 Q210 100 230 120 Q250 140 270 120 Q290 100 310 120" stroke="#a0bfff" stroke-width="8" fill="none"/>
    <path d="M60 200 Q80 180 100 200 Q120 220 140 200 Q160 180 180 200" stroke="#ffb3b3" stroke-width="7" fill="none"/>
    <ellipse cx="320" cy="260" rx="30" ry="18" fill="#ffe0e0"/>
    <!-- Stylizowane łapki -->
    <circle cx="60" cy="300" r="10" fill="#b3d0ff"/>
    <circle cx="80" cy="310" r="6" fill="#b3d0ff"/>
    <circle cx="100" cy="300" r="8" fill="#b3d0ff"/>
    <circle cx="90" cy="285" r="5" fill="#b3d0ff"/>
    <!-- Stylizowany pysk psa -->
    <ellipse cx="370" cy="200" rx="18" ry="12" fill="#ffd6a0"/>
    <ellipse cx="370" cy="195" rx="6" ry="4" fill="#fff"/>
    <ellipse cx="370" cy="205" rx="6" ry="4" fill="#fff"/>
    <circle cx="370" cy="200" r="3" fill="#333"/>
  </g>
</svg>
